<svg width="179" height="62" viewBox="0 0 179 62" fill="none" xmlns="http://www.w3.org/2000/svg">
<path d="M0.648226 61V1.5H7.19323V28.105H41.7882V1.5H48.3332V61H41.7882V33.97H7.19323V61H0.648226ZM83.7649 61V7.365H62.2599V1.5H111.815V7.365H90.3099V61H83.7649ZM149.419 61.935C145.113 61.935 141.089 61.1417 137.349 59.555C133.666 57.9683 130.408 55.7867 127.574 53.01C124.798 50.1767 122.616 46.9183 121.029 43.235C119.443 39.495 118.649 35.5 118.649 31.25C118.649 27 119.414 23.0333 120.944 19.35C122.531 15.61 124.713 12.3517 127.489 9.575C130.323 6.74166 133.581 4.53166 137.264 2.945C141.004 1.35833 145.028 0.564998 149.334 0.564998C153.924 0.564998 158.259 1.415 162.339 3.115C166.419 4.815 169.904 7.22333 172.794 10.34L168.374 14.845C166.108 12.2383 163.274 10.2267 159.874 8.81C156.531 7.33666 153.018 6.6 149.334 6.6C145.934 6.6 142.761 7.22333 139.814 8.47C136.924 9.71666 134.374 11.4733 132.164 13.74C130.011 15.95 128.311 18.5567 127.064 21.56C125.874 24.5067 125.279 27.7367 125.279 31.25C125.279 34.7067 125.874 37.9367 127.064 40.94C128.311 43.9433 130.011 46.5783 132.164 48.845C134.374 51.055 136.924 52.7833 139.814 54.03C142.761 55.2767 145.934 55.9 149.334 55.9C153.358 55.9 156.984 55.0217 160.214 53.265C163.501 51.5083 166.136 49.1 168.119 46.04C170.159 42.98 171.349 39.5233 171.689 35.67H150.354V29.89H178.319V32.525C178.319 36.6617 177.583 40.515 176.109 44.085C174.636 47.655 172.596 50.7717 169.989 53.435C167.383 56.0983 164.323 58.195 160.809 59.725C157.296 61.1983 153.499 61.935 149.419 61.935Z" fill="white"/>
</svg>
