<svg width="240" height="64" viewBox="0 0 240 64" fill="none" xmlns="http://www.w3.org/2000/svg">
<rect width="240" height="64" fill="#323C52"/>
<path d="M92.988 42V22.4H95.928V30.8H106.344V22.4H109.284V42H106.344V33.46H95.928V42H92.988ZM118.653 42V25.004H111.765V22.4H128.481V25.004H121.593V42H118.653ZM139.009 42.308C137.572 42.308 136.228 42.0467 134.977 41.524C133.745 41.0013 132.663 40.2827 131.729 39.368C130.796 38.4347 130.068 37.3613 129.545 36.148C129.023 34.916 128.761 33.6 128.761 32.2C128.761 30.8 129.013 29.4933 129.517 28.28C130.04 27.048 130.768 25.9747 131.701 25.06C132.635 24.1267 133.717 23.3987 134.949 22.876C136.181 22.3533 137.516 22.092 138.953 22.092C140.503 22.092 141.968 22.3907 143.349 22.988C144.731 23.5853 145.897 24.416 146.849 25.48L144.833 27.44C144.124 26.6 143.247 25.956 142.201 25.508C141.175 25.0413 140.092 24.808 138.953 24.808C137.927 24.808 136.975 24.9947 136.097 25.368C135.239 25.7413 134.483 26.264 133.829 26.936C133.176 27.5893 132.663 28.364 132.289 29.26C131.935 30.156 131.757 31.136 131.757 32.2C131.757 33.2453 131.935 34.2253 132.289 35.14C132.663 36.036 133.176 36.82 133.829 37.492C134.501 38.164 135.276 38.6867 136.153 39.06C137.031 39.4333 137.983 39.62 139.009 39.62C140.167 39.62 141.212 39.3773 142.145 38.892C143.097 38.4067 143.872 37.744 144.469 36.904C145.067 36.0453 145.431 35.084 145.561 34.02H139.037V31.444H148.641V32.452C148.641 33.852 148.399 35.1493 147.913 36.344C147.428 37.5387 146.747 38.584 145.869 39.48C145.011 40.376 143.993 41.076 142.817 41.58C141.641 42.0653 140.372 42.308 139.009 42.308Z" fill="white"/>
</svg>
